#Comment line ignore any data following # character 
#Hierarchical Translation and Rotation (.htr) file 
[Header]	
#Header keywords are followed by a single value 
FileType HTR		#Single word string
DataType HTRS		#Translation followed by rotation and scale data
FileVersion 1		#integer
NumSegments 84		#integer
NumFrames 2		#integer
DataFrameRate 30		#integer, data frame rate in this file
EulerRotationOrder ZYX
CalibrationUnits mm
RotationUnits Degrees
GlobalAxisofGravity Y
BoneLengthAxis Y
ScaleFactor 1.00
[SegmentNames&Hierarchy]
#CHILD	PARENT
MASTER GLOBAL
root MASTER
chest root
L_mid_tent01 root
R_mid_tent01 root
spine01 root
Bip01_Neck chest
L_humerus chest
R_humerus chest
weapon_bone chest
Bip01_Head Bip01_Neck
eye_left_bone Bip01_Head
eye_right_bone Bip01_Head
L_forearm L_humerus
L_front_hand L_forearm
L_weapon_bone L_forearm
L_front_hand01_01 L_front_hand
L_front_hand02_01 L_front_hand
L_front_hand03_01 L_front_hand
L_front_hand01_02 L_front_hand01_01
L_front_hand02_02 L_front_hand02_01
L_front_hand03_02 L_front_hand03_01
R_forearm R_humerus
R_front_hand R_forearm
R_weapon_bone R_forearm
R_front_hand01_01 R_front_hand
R_front_hand02_01 R_front_hand
R_front_hand03_01 R_front_hand
R_front_hand01_02 R_front_hand01_01
R_front_hand02_02 R_front_hand02_01
R_front_hand03_02 R_front_hand03_01
null_rope01_connect L_mid_tent01
Rope1_Seg01 null_rope01_connect
Rope1_Seg02 Rope1_Seg01
Rope1_Seg03 Rope1_Seg02
Rope1_Seg04 Rope1_Seg03
Rope1_Seg05 Rope1_Seg04
Rope1_Seg06 Rope1_Seg05
Rope1_Seg07 Rope1_Seg06
Rope1_Seg09 Rope1_Seg07
L_mid_hand01 Rope1_Seg09
L_mid_hand02 Rope1_Seg09
L_mid_hand03 Rope1_Seg09
null_rope02_connect R_mid_tent01
Rope2_Seg01 null_rope02_connect
Rope2_Seg02 Rope2_Seg01
Rope2_Seg03 Rope2_Seg02
Rope2_Seg04 Rope2_Seg03
Rope2_Seg05 Rope2_Seg04
Rope2_Seg06 Rope2_Seg05
Rope2_Seg07 Rope2_Seg06
Rope2_Seg09 Rope2_Seg07
R_mid_hand01 Rope2_Seg09
R_mid_hand02 Rope2_Seg09
R_mid_hand03 Rope2_Seg09
spine02 spine01
spine03 spine02
pelvis spine03
null_rope03_connect pelvis
null_rope04_connect pelvis
Rope3_Seg01 null_rope03_connect
Rope3_Seg02 Rope3_Seg01
Rope3_Seg03 Rope3_Seg02
Rope3_Seg04 Rope3_Seg03
Rope3_Seg05 Rope3_Seg04
Rope3_Seg06 Rope3_Seg05
Rope3_Seg07 Rope3_Seg06
Rope3_Seg08 Rope3_Seg07
Rope3_Seg09 Rope3_Seg08
R_rear_hand01 Rope3_Seg09
R_rear_hand02 Rope3_Seg09
R_rear_hand03 Rope3_Seg09
Rope4_Seg01 null_rope04_connect
Rope4_Seg02 Rope4_Seg01
Rope4_Seg03 Rope4_Seg02
Rope4_Seg04 Rope4_Seg03
Rope4_Seg05 Rope4_Seg04
Rope4_Seg06 Rope4_Seg05
Rope4_Seg07 Rope4_Seg06
Rope4_Seg08 Rope4_Seg07
Rope4_Seg09 Rope4_Seg08
L_rear_hand01 Rope4_Seg09
L_rear_hand02 Rope4_Seg09
L_rear_hand03 Rope4_Seg09
[BasePosition]
#SegmentName Tx, Ty, Tz, Rx, Ry, Rz, BoneLength
MASTER 0.000000 0.000000 0.000000 -90.000000 0.000000 0.000000 10.000000 
root 0.000000 0.000000 0.000000 0.000000 0.000000 0.000000 10.000000 
chest 0.000000 0.000000 0.000000 0.000000 0.000000 0.000000 10.000000 
L_mid_tent01 0.000000 0.000000 0.000000 0.000000 0.000000 0.000000 10.000000 
R_mid_tent01 0.000000 0.000000 0.000000 0.000000 0.000000 0.000000 10.000000 
spine01 0.000000 0.000000 0.000000 0.000000 0.000000 0.000000 10.000000 
Bip01_Neck 0.000000 0.000000 0.000000 0.000000 0.000000 0.000000 10.000000 
L_humerus 0.000000 0.000000 0.000000 0.000000 0.000000 0.000000 10.000000 
R_humerus 0.000000 0.000000 0.000000 0.000000 0.000000 0.000000 10.000000 
weapon_bone 0.000000 0.000000 0.000000 0.000000 0.000000 0.000000 10.000000 
Bip01_Head 0.000000 0.000000 0.000000 0.000000 0.000000 0.000000 10.000000 
eye_left_bone 0.000000 0.000000 0.000000 0.000000 0.000000 0.000000 10.000000 
eye_right_bone 0.000000 0.000000 0.000000 0.000000 0.000000 0.000000 10.000000 
L_forearm 0.000000 0.000000 0.000000 0.000000 0.000000 0.000000 10.000000 
L_front_hand 0.000000 0.000000 0.000000 0.000000 0.000000 0.000000 10.000000 
L_weapon_bone 0.000000 0.000000 0.000000 0.000000 0.000000 0.000000 10.000000 
L_front_hand01_01 0.000000 0.000000 0.000000 0.000000 0.000000 0.000000 10.000000 
L_front_hand02_01 0.000000 0.000000 0.000000 0.000000 0.000000 0.000000 10.000000 
L_front_hand03_01 0.000000 0.000000 0.000000 0.000000 0.000000 0.000000 10.000000 
L_front_hand01_02 0.000000 0.000000 0.000000 0.000000 0.000000 0.000000 10.000000 
L_front_hand02_02 0.000000 0.000000 0.000000 0.000000 0.000000 0.000000 10.000000 
L_front_hand03_02 0.000000 0.000000 0.000000 0.000000 0.000000 0.000000 10.000000 
R_forearm 0.000000 0.000000 0.000000 0.000000 0.000000 0.000000 10.000000 
R_front_hand 0.000000 0.000000 0.000000 0.000000 0.000000 0.000000 10.000000 
R_weapon_bone 0.000000 0.000000 0.000000 0.000000 0.000000 0.000000 10.000000 
R_front_hand01_01 0.000000 0.000000 0.000000 0.000000 0.000000 0.000000 10.000000 
R_front_hand02_01 0.000000 0.000000 0.000000 0.000000 0.000000 0.000000 10.000000 
R_front_hand03_01 0.000000 0.000000 0.000000 0.000000 0.000000 0.000000 10.000000 
R_front_hand01_02 0.000000 0.000000 0.000000 0.000000 0.000000 0.000000 10.000000 
R_front_hand02_02 0.000000 0.000000 0.000000 0.000000 0.000000 0.000000 10.000000 
R_front_hand03_02 0.000000 0.000000 0.000000 0.000000 0.000000 0.000000 10.000000 
null_rope01_connect 0.000000 0.000000 0.000000 0.000000 0.000000 0.000000 10.000000 
Rope1_Seg01 0.000000 0.000000 0.000000 0.000000 0.000000 0.000000 10.000000 
Rope1_Seg02 0.000000 0.000000 0.000000 0.000000 0.000000 0.000000 10.000000 
Rope1_Seg03 0.000000 0.000000 0.000000 0.000000 0.000000 0.000000 10.000000 
Rope1_Seg04 0.000000 0.000000 0.000000 0.000000 0.000000 0.000000 10.000000 
Rope1_Seg05 0.000000 0.000000 0.000000 0.000000 0.000000 0.000000 10.000000 
Rope1_Seg06 0.000000 0.000000 0.000000 0.000000 0.000000 0.000000 10.000000 
Rope1_Seg07 0.000000 0.000000 0.000000 0.000000 0.000000 0.000000 10.000000 
Rope1_Seg09 0.000000 0.000000 0.000000 0.000000 0.000000 0.000000 10.000000 
L_mid_hand01 0.000000 0.000000 0.000000 0.000000 0.000000 0.000000 10.000000 
L_mid_hand02 0.000000 0.000000 0.000000 0.000000 0.000000 0.000000 10.000000 
L_mid_hand03 0.000000 0.000000 0.000000 0.000000 0.000000 0.000000 10.000000 
null_rope02_connect 0.000000 0.000000 0.000000 0.000000 0.000000 0.000000 10.000000 
Rope2_Seg01 0.000000 0.000000 0.000000 0.000000 0.000000 0.000000 10.000000 
Rope2_Seg02 0.000000 0.000000 0.000000 0.000000 0.000000 0.000000 10.000000 
Rope2_Seg03 0.000000 0.000000 0.000000 0.000000 0.000000 0.000000 10.000000 
Rope2_Seg04 0.000000 0.000000 0.000000 0.000000 0.000000 0.000000 10.000000 
Rope2_Seg05 0.000000 0.000000 0.000000 0.000000 0.000000 0.000000 10.000000 
Rope2_Seg06 0.000000 0.000000 0.000000 0.000000 0.000000 0.000000 10.000000 
Rope2_Seg07 0.000000 0.000000 0.000000 0.000000 0.000000 0.000000 10.000000 
Rope2_Seg09 0.000000 0.000000 0.000000 0.000000 0.000000 0.000000 10.000000 
R_mid_hand01 0.000000 0.000000 0.000000 0.000000 0.000000 0.000000 10.000000 
R_mid_hand02 0.000000 0.000000 0.000000 0.000000 0.000000 0.000000 10.000000 
R_mid_hand03 0.000000 0.000000 0.000000 0.000000 0.000000 0.000000 10.000000 
spine02 0.000000 0.000000 0.000000 0.000000 0.000000 0.000000 10.000000 
spine03 0.000000 0.000000 0.000000 0.000000 0.000000 0.000000 10.000000 
pelvis 0.000000 0.000000 0.000000 0.000000 0.000000 0.000000 10.000000 
null_rope03_connect 0.000000 0.000000 0.000000 0.000000 0.000000 0.000000 10.000000 
null_rope04_connect 0.000000 0.000000 0.000000 0.000000 0.000000 0.000000 10.000000 
Rope3_Seg01 0.000000 0.000000 0.000000 0.000000 0.000000 0.000000 10.000000 
Rope3_Seg02 0.000000 0.000000 0.000000 0.000000 0.000000 0.000000 10.000000 
Rope3_Seg03 0.000000 0.000000 0.000000 0.000000 0.000000 0.000000 10.000000 
Rope3_Seg04 0.000000 0.000000 0.000000 0.000000 0.000000 0.000000 10.000000 
Rope3_Seg05 0.000000 0.000000 0.000000 0.000000 0.000000 0.000000 10.000000 
Rope3_Seg06 0.000000 0.000000 0.000000 0.000000 0.000000 0.000000 10.000000 
Rope3_Seg07 0.000000 0.000000 0.000000 0.000000 0.000000 0.000000 10.000000 
Rope3_Seg08 0.000000 0.000000 0.000000 0.000000 0.000000 0.000000 10.000000 
Rope3_Seg09 0.000000 0.000000 0.000000 0.000000 0.000000 0.000000 10.000000 
R_rear_hand01 0.000000 0.000000 0.000000 0.000000 0.000000 0.000000 10.000000 
R_rear_hand02 0.000000 0.000000 0.000000 0.000000 0.000000 0.000000 10.000000 
R_rear_hand03 0.000000 0.000000 0.000000 0.000000 0.000000 0.000000 10.000000 
Rope4_Seg01 0.000000 0.000000 0.000000 0.000000 0.000000 0.000000 10.000000 
Rope4_Seg02 0.000000 0.000000 0.000000 0.000000 0.000000 0.000000 10.000000 
Rope4_Seg03 0.000000 0.000000 0.000000 0.000000 0.000000 0.000000 10.000000 
Rope4_Seg04 0.000000 0.000000 0.000000 0.000000 0.000000 0.000000 10.000000 
Rope4_Seg05 0.000000 0.000000 0.000000 0.000000 0.000000 0.000000 10.000000 
Rope4_Seg06 0.000000 0.000000 0.000000 0.000000 0.000000 0.000000 10.000000 
Rope4_Seg07 0.000000 0.000000 0.000000 0.000000 0.000000 0.000000 10.000000 
Rope4_Seg08 0.000000 0.000000 0.000000 0.000000 0.000000 0.000000 10.000000 
Rope4_Seg09 0.000000 0.000000 0.000000 0.000000 0.000000 0.000000 10.000000 
L_rear_hand01 0.000000 0.000000 0.000000 0.000000 0.000000 0.000000 10.000000 
L_rear_hand02 0.000000 0.000000 0.000000 0.000000 0.000000 0.000000 10.000000 
L_rear_hand03 0.000000 0.000000 0.000000 0.000000 0.000000 0.000000 10.000000 
#Beginning of Data. Separated by tabs
#Fr	Tx	Ty	Tz	Rx	Ry	Rz	SF
[MASTER]
33 0.000000 0.000000 0.000000 0.001660 0.001660 0.001660 0.000000
34 0.000000 0.000000 0.000000 0.001660 0.001660 0.001660 0.000000
[root]
33 -16.502321 32.326626 1499.029175 -90.960762 -10.820540 -98.798653 1499.468506
34 -16.502319 23.313822 1479.125732 -91.384796 -11.244502 -95.477974 1479.401611
[chest]
33 -84.512650 -34.090519 0.000000 -2.161880 -0.007003 168.162552 91.129311
34 -84.512650 -34.090519 0.000000 -2.165571 -0.006681 168.199844 91.129311
[L_mid_tent01]
33 27.299114 22.179123 -249.918701 -7.296769 38.704208 47.312050 252.381683
34 27.299114 22.179119 -249.918701 -12.933367 32.505928 36.748440 252.381683
[R_mid_tent01]
33 23.228794 24.509907 226.238495 -174.878372 -14.128136 32.115623 228.744751
34 23.228794 24.509907 226.238495 -172.435593 -15.231575 30.060623 228.744751
[spine01]
33 -0.361383 -0.195265 0.000000 -0.000001 -0.000007 22.052340 0.410763
34 -0.361383 -0.195265 0.000000 -0.000001 -0.000007 22.052340 0.410763
[Bip01_Neck]
33 165.484543 71.581718 0.000119 175.896118 1.177290 24.871183 180.302734
34 165.484543 71.581718 0.000119 175.896118 1.177290 24.871183 180.302734
[L_humerus]
33 -13.983130 -135.272980 -120.471481 -172.834641 55.776711 -79.518532 181.680161
34 -13.983130 -135.272980 -120.471481 177.690735 56.900127 -90.077347 181.680161
[R_humerus]
33 -13.983309 -135.273102 125.287651 60.282253 -83.490280 35.963642 184.909012
34 -13.983309 -135.273102 125.287651 42.777260 -80.456680 53.260380 184.909012
[weapon_bone]
33 235.964890 -300.705902 0.000000 0.000000 -89.951546 -128.212341 382.234833
34 235.964890 -300.705902 0.000000 0.000000 -89.951546 -128.212341 382.234833
[Bip01_Head]
33 203.547653 150.841171 4.889483 2.647501 4.179020 -59.951725 253.394196
34 205.419739 148.517426 4.570871 2.711844 4.450387 -61.188763 253.526306
[eye_left_bone]
33 31.473461 156.420609 -70.329903 -128.673416 -88.697044 29.245193 174.368225
34 31.174635 156.162720 -70.076019 -128.967514 -88.736847 29.538794 173.980759
[eye_right_bone]
33 35.171597 157.746643 58.673054 51.465176 -88.700798 29.109266 171.940613
34 34.531620 157.493195 58.944210 51.175060 -88.741035 29.399586 171.671066
[L_forearm]
33 322.776093 0.000000 -0.000119 0.000155 0.002342 -82.431847 322.776093
34 322.776093 0.000000 -0.000119 0.000012 0.002347 -89.434959 322.776093
[L_front_hand]
33 241.149185 -0.042021 -3.300071 160.270279 -3.413830 -20.975903 241.171753
34 241.149185 -0.042021 -3.300071 166.349838 -3.182004 -22.709534 241.171753
[L_weapon_bone]
33 156.183838 0.000000 0.000000 0.000014 0.000007 0.000001 156.183838
34 156.183838 0.000000 0.000000 0.000014 0.000007 0.000001 156.183838
[L_front_hand01_01]
33 86.095154 20.947098 -0.655860 -0.366594 -0.477154 75.385574 88.609184
34 86.095154 20.947098 -0.655860 -0.366594 -0.477154 75.385574 88.609184
[L_front_hand02_01]
33 86.935165 -11.437475 24.513514 154.399796 -59.883835 -61.369587 91.046425
34 86.935165 -11.437475 24.513514 154.399796 -59.883835 -61.369587 91.046425
[L_front_hand03_01]
33 86.637497 -14.123976 -20.424902 -153.913849 58.118122 -62.702866 90.126129
34 86.637497 -14.123976 -20.424902 -153.913849 58.118122 -62.702866 90.126129
[L_front_hand01_02]
33 71.020905 -0.000179 0.000030 0.000334 -0.002323 -106.379684 71.020905
34 71.020905 -0.000179 0.000030 0.000334 -0.002323 -106.379684 71.020905
[L_front_hand02_02]
33 71.020927 -0.000119 0.000060 0.000334 -0.002323 -106.379684 71.020927
34 71.020927 -0.000119 0.000060 0.000334 -0.002323 -106.379684 71.020927
[L_front_hand03_02]
33 71.020905 -0.000060 0.000060 0.000334 -0.002323 -106.379684 71.020905
34 71.020905 -0.000060 0.000060 0.000334 -0.002323 -106.379684 71.020905
[R_forearm]
33 322.776428 -0.000060 0.000030 0.213235 0.006359 -92.798637 322.776428
34 322.776428 -0.000060 0.000030 0.212467 0.020798 -96.809799 322.776428
[R_front_hand]
33 238.847015 -0.006795 2.210259 -2.635298 -10.645461 -26.312506 238.857239
34 238.847015 -0.006795 2.210259 -2.635298 -10.645461 -26.312506 238.857239
[R_weapon_bone]
33 155.664093 0.002503 -0.000030 0.003487 0.001180 -90.988930 155.664078
34 155.664093 0.002503 -0.000030 0.003487 0.001180 -90.988930 155.664078
[R_front_hand01_01]
33 87.624611 14.231146 22.918642 -154.633499 -59.950619 61.746044 91.683487
34 87.624611 14.231146 22.918642 -154.633499 -59.950619 61.746044 91.683487
[R_front_hand02_01]
33 89.356956 14.367283 -19.491137 154.602661 58.302849 63.744389 92.579636
34 89.356956 14.367283 -19.491137 154.602661 58.302849 63.744389 92.579636
[R_front_hand03_01]
33 87.286232 -22.307278 -0.143439 0.162155 -0.423168 -75.767921 90.091743
34 87.286232 -22.307278 -0.143439 0.162155 -0.423168 -75.767921 90.091743
[R_front_hand01_02]
33 71.020905 0.000060 0.000119 0.002323 -0.000334 106.381714 71.020905
34 71.020905 0.000060 0.000119 0.002323 -0.000334 106.381714 71.020905
[R_front_hand02_02]
33 71.020844 -0.000030 -0.000119 0.002323 -0.000334 106.381714 71.020836
34 71.020844 -0.000030 -0.000119 0.002323 -0.000334 106.381714 71.020836
[R_front_hand03_02]
33 71.020905 0.000000 0.000030 0.002323 -0.000334 106.381714 71.020905
34 71.020905 0.000000 0.000030 0.002323 -0.000334 106.381714 71.020905
[null_rope01_connect]
33 328.732483 0.000000 -0.000238 -131.986526 -43.690701 -179.357773 328.732483
34 328.732483 0.000000 -0.000238 -134.437302 -50.329872 -166.001404 328.732483
[Rope1_Seg01]
33 0.000000 0.000000 0.000000 127.897346 31.809847 174.669815 0.000000
34 0.000000 0.000000 0.000000 134.312820 29.758076 -165.959076 0.000000
[Rope1_Seg02]
33 139.999863 -0.000179 0.000000 9.356991 -12.994355 -7.392055 139.999863
34 139.999863 -0.000179 0.000000 17.341370 -9.552163 -10.674724 139.999863
[Rope1_Seg03]
33 139.999924 0.000060 -0.000060 9.932719 -20.731441 -7.443140 139.999924
34 139.999924 0.000060 -0.000060 18.849939 -16.509794 -9.111427 139.999924
[Rope1_Seg04]
33 139.999924 -0.000060 -0.000119 4.395268 -21.790518 -3.163260 139.999924
34 139.999924 -0.000060 -0.000119 9.588779 -18.039230 -1.207300 139.999924
[Rope1_Seg05]
33 139.999832 0.000119 -0.000060 1.758470 -17.105053 -7.239719 139.999832
34 139.999832 0.000119 -0.000060 10.385253 -18.042105 -8.951712 139.999832
[Rope1_Seg06]
33 139.999954 0.000119 -0.000060 0.204673 -13.018603 -7.538543 139.999954
34 139.999954 0.000119 -0.000060 6.965499 -15.285723 -8.387943 139.999954
[Rope1_Seg07]
33 139.999985 0.000060 0.000000 -0.513328 -7.719231 -3.538238 139.999985
34 139.999985 0.000060 0.000000 2.080504 -7.935739 -2.160792 139.999985
[Rope1_Seg09]
33 121.602913 0.000119 -0.000089 124.566917 -1.475402 -2.743544 121.602913
34 121.602913 0.000119 -0.000089 94.152618 -2.094257 -1.508616 121.602913
[L_mid_hand01]
33 103.859421 1.038730 8.195221 108.671051 -39.237446 -12.596736 104.187431
34 103.859421 1.038730 8.195221 107.171867 -32.882149 -10.052440 104.187431
[L_mid_hand02]
33 105.572853 -4.139662 -10.864139 -145.988998 30.676531 -36.498505 106.211075
34 105.572853 -4.139662 -10.864139 -143.006165 26.794361 -30.296312 106.211075
[L_mid_hand03]
33 104.641464 17.579376 -3.913581 -14.569022 11.958954 42.470219 106.179977
34 104.641464 17.579376 -3.913581 -15.831858 10.205504 35.898418 106.179977
[null_rope02_connect]
33 328.732849 0.000179 -0.000119 -165.359604 80.746727 -54.041420 328.732849
34 328.732849 0.000179 -0.000119 -150.123657 77.625114 -40.696850 328.732849
[Rope2_Seg01]
33 0.000095 0.000153 0.000068 50.203278 -1.543864 -52.884487 0.000192
34 0.000095 0.000153 0.000070 43.928936 0.376739 -49.450527 0.000193
[Rope2_Seg02]
33 139.999741 -0.000060 -0.000119 26.056046 -1.678266 -10.512932 139.999756
34 139.999741 -0.000060 -0.000119 30.344263 -1.967910 -10.528135 139.999756
[Rope2_Seg03]
33 140.000107 0.000030 0.000000 22.590281 0.005786 -8.968373 140.000107
34 140.000107 0.000030 0.000000 25.195465 -0.347548 -8.790683 140.000107
[Rope2_Seg04]
33 139.999802 0.000000 -0.000060 10.272818 -5.382938 -2.560543 139.999802
34 139.999802 0.000000 -0.000060 7.760891 -6.566477 -0.786791 139.999802
[Rope2_Seg05]
33 139.999985 -0.000060 0.000119 -10.342832 -13.498721 14.207452 139.999985
34 139.999985 -0.000060 0.000119 -11.845210 -12.582850 15.030521 139.999985
[Rope2_Seg06]
33 139.999893 -0.000030 -0.000119 -4.127026 -12.588627 10.272449 139.999893
34 139.999893 -0.000030 -0.000119 -3.627233 -10.131271 8.566586 139.999893
[Rope2_Seg07]
33 139.999893 0.000060 -0.000060 -0.828794 -6.682785 4.202600 139.999893
34 139.999893 0.000060 -0.000060 -0.821745 -5.328827 3.535961 139.999893
[Rope2_Seg09]
33 121.338966 0.000089 -0.000060 33.793236 -1.359788 -0.847141 121.338966
34 121.338966 0.000089 -0.000060 33.793236 -1.359788 -0.847141 121.338966
[R_mid_hand01]
33 104.680779 11.144459 -10.335981 -44.145947 19.560663 21.759447 105.778534
34 104.680779 11.144459 -10.335981 -44.145947 19.560663 21.759447 105.778534
[R_mid_hand02]
33 104.070427 2.443552 8.231699 74.186180 -24.483591 7.232481 104.424065
34 104.070427 2.443552 8.231699 74.186180 -24.483591 7.232481 104.424065
[R_mid_hand03]
33 106.028137 -11.221827 -5.996406 -166.520828 8.347037 -28.494413 106.788818
34 106.028137 -11.221827 -5.996406 -166.520828 8.347037 -28.494413 106.788818
[spine02]
33 129.756927 0.001550 0.000119 0.459940 -4.033787 -14.353916 129.756927
34 129.756927 0.001550 0.000119 0.431915 -4.037105 -13.976519 129.756927
[spine03]
33 78.614067 0.081635 -4.899014 1.298093 4.072971 7.848760 78.766602
34 78.614067 0.081635 -4.899014 1.461592 4.019025 10.147420 78.766602
[pelvis]
33 169.435242 0.051022 0.000000 -0.060591 -0.180183 14.167660 169.435257
34 169.435242 0.051022 0.000000 -0.060551 -0.180196 14.142744 169.435257
[null_rope03_connect]
33 -1.257226 -2.466202 137.391083 -88.362411 -81.097046 159.511734 137.418976
34 -1.257226 -2.466202 137.391083 -91.805084 -84.330055 160.692200 137.418976
[null_rope04_connect]
33 -1.259640 -2.480268 -137.844437 -88.362411 -81.097046 159.511734 137.872513
34 -1.259640 -2.480268 -137.844437 -91.805084 -84.330055 160.692200 137.872513
[Rope3_Seg01]
33 0.000010 0.000004 -0.000017 -133.623840 25.212769 -81.586922 0.000020
34 0.000010 0.000003 -0.000013 -134.171219 29.624893 -81.003433 0.000016
[Rope3_Seg02]
33 139.999924 -0.000119 0.000060 0.191784 1.828594 1.993214 139.999924
34 139.999924 -0.000119 0.000060 0.469239 2.444551 0.120475 139.999924
[Rope3_Seg03]
33 139.999924 -0.000119 0.000119 0.300985 2.655982 2.878171 139.999924
34 139.999924 -0.000119 0.000119 0.733371 3.488075 0.142704 139.999924
[Rope3_Seg04]
33 139.999924 0.000119 0.000000 3.231173 10.943570 3.303617 139.999924
34 139.999924 0.000119 0.000000 2.950476 11.607978 -3.284423 139.999924
[Rope3_Seg05]
33 139.999924 -0.000238 0.000060 -5.484855 -3.413727 11.472651 139.999924
34 139.999924 -0.000238 0.000060 -1.536253 -0.789541 6.757823 139.999924
[Rope3_Seg06]
33 139.999893 -0.000119 -0.000060 -15.061614 -21.978836 10.701241 139.999893
34 139.999893 -0.000119 -0.000060 -9.797670 -15.166968 12.900885 139.999893
[Rope3_Seg07]
33 139.999771 0.000060 -0.000119 -3.914971 -8.898326 3.195498 139.999771
34 139.999771 0.000060 -0.000119 -2.805811 -5.701913 4.327893 139.999771
[Rope3_Seg08]
33 139.999985 -0.000060 0.000000 -1.497965 -4.853864 1.391946 139.999985
34 139.999985 -0.000060 0.000000 -1.260944 -3.288316 2.264609 139.999985
[Rope3_Seg09]
33 90.185997 -0.000179 -0.000060 -17.250921 -1.357567 -0.847939 90.185997
34 90.185997 -0.000179 -0.000060 9.509766 -1.362268 -0.846196 90.185997
[R_rear_hand01]
33 103.366196 -6.073594 -10.757982 -160.019470 14.769053 -24.439310 104.101845
34 103.366196 -6.073594 -10.757982 -160.019470 14.769054 -24.439312 104.101845
[R_rear_hand02]
33 100.509819 12.039542 -7.992327 -35.779446 15.980558 23.927948 101.543350
34 100.509819 12.039542 -7.992327 -35.779446 15.980558 23.927948 101.543350
[R_rear_hand03]
33 101.539970 5.215704 5.435467 83.711815 -25.208061 6.550417 101.819031
34 101.539970 5.215704 5.435467 83.711815 -25.208061 6.550417 101.819031
[Rope4_Seg01]
33 0.000010 0.000038 -0.000114 41.141960 25.108097 -118.539970 0.000121
34 0.000010 0.000038 -0.000114 42.336445 27.744144 -115.525055 0.000121
[Rope4_Seg02]
33 139.999985 0.000060 0.000119 0.621470 -2.759982 4.479894 139.999985
34 139.999985 0.000060 0.000119 0.258098 -1.319780 4.376987 139.999985
[Rope4_Seg03]
33 139.999924 0.000000 -0.000238 1.004180 -4.651420 8.045896 139.999924
34 139.999924 0.000000 -0.000238 0.211323 -2.102933 7.199708 139.999924
[Rope4_Seg04]
33 139.999985 0.000000 0.000119 0.419268 -10.810198 29.940746 139.999985
34 139.999985 0.000000 0.000119 -2.198274 -5.691643 26.763346 139.999985
[Rope4_Seg05]
33 139.999802 -0.000060 -0.000119 -2.923634 -7.084559 -26.262609 139.999802
34 139.999802 -0.000060 -0.000119 0.431572 -0.156057 -17.775702 139.999802
[Rope4_Seg06]
33 139.999924 0.000000 0.000060 -14.154362 -0.416960 -29.724049 139.999924
34 139.999924 0.000000 0.000060 -3.196621 2.174987 -23.793030 139.999924
[Rope4_Seg07]
33 139.999802 0.000000 0.000000 -6.597277 1.571467 -10.189028 139.999802
34 139.999802 0.000000 0.000000 -1.634413 0.843569 -8.054720 139.999802
[Rope4_Seg08]
33 139.999924 0.000000 0.000119 -4.108647 0.998997 -3.667398 139.999924
34 139.999924 0.000000 0.000119 -2.502661 0.550249 -4.117167 139.999924
[Rope4_Seg09]
33 90.185791 0.000060 0.000060 -119.891296 2.229603 0.852737 90.185791
34 90.185791 0.000060 0.000060 -123.826485 2.229712 0.851884 90.185791
[L_rear_hand01]
33 101.696655 -8.392275 -7.654577 -36.144974 -15.023620 157.444031 102.329041
34 101.696655 -8.392275 -7.654577 -36.144974 -15.023620 157.444031 102.329041
[L_rear_hand02]
33 102.726799 -1.568258 5.773216 83.794235 23.585917 173.644012 102.900848
34 102.726799 -1.568258 5.773216 83.794235 23.585917 173.644012 102.900848
[L_rear_hand03]
33 104.552910 9.721220 -10.420293 -159.624359 -14.202497 -157.147644 105.519653
34 104.552910 9.721220 -10.420293 -159.624359 -14.202496 -157.147644 105.519653
